# xmcd
#
# Track frame offsets:
# 150
# 17887
# 33545
# 49732
# 65950
# 87215
# 100417
# 117005
# 134317
# 152765
# 168830
# 185120
# 201685
# 218312
# 237380
# 257210
#
# Disc length: 3639 seconds
#
#
# Revision: 8
# Processed by: cddbd v1.4PL0 Copyright (c) Steve Scherf et al.
# Submitted via: FreeRIP 2.00 
#
DISCID=ea0e3510
DTITLE=Shania Twain - Come on Over
DYEAR=1997
DGENRE=Country
TTITLE0=Man! I Feel Like a Woman!
TTITLE1=I'm Holdin' on to Love (to Save My Life)
TTITLE2=Love Gets Me Every Time
TTITLE3=Don't Be Stupid (you Know I Love You)
TTITLE4=From This Moment on
TTITLE5=Come on Over
TTITLE6=When
TTITLE7=Whatever You Do! Don't!
TTITLE8=If You Wanna Touch Her, Ask!
TTITLE9=You're Still the One
TTITLE10=Honey, I'm Home
TTITLE11=That Don't Impress Me Much
TTITLE12=Black Eyes, Blue Tears
TTITLE13=I Won't Leave You Lonely
TTITLE14=Rock This Country!
TTITLE15=You've Got a Way
EXTD=0\n\n\n
EXTT0=
EXTT1=
EXTT2=
EXTT3=
EXTT4=
EXTT5=
EXTT6=
EXTT7=
EXTT8=
EXTT9=
EXTT10=
EXTT11=
EXTT12=
EXTT13=
EXTT14=
EXTT15=
PLAYORDER=
